# xmcd
#
# Track frame offsets:
#	183
#	28988
#	52275
#	67818
#
# Disc length: 1220 seconds
#
# Revision: 1
# Processed by: cddbd v1.4PL0 Copyright (c) Steve Scherf et al.
# Submitted via: Gronk 1.4
#
DISCID=3604c204
DTITLE=Sheryl Crow - What I Can Do For You
DYEAR=1900
DGENRE=country
TTITLE0=What I Can Do For You (Live)
TTITLE1=All I Wanna Do (Live)
TTITLE2=Strong Enough (Live)
TTITLE3=Can't Cry Anymore (live)
EXTD=
EXTT0=
EXTT1=
EXTT2=
EXTT3=
PLAYORDER=
